<svg id="visual" viewBox="0 0 900 600" width="900" height="600" xmlns="http://www.w3.org/2000/svg" xmlns:xlink="http://www.w3.org/1999/xlink" version="1.1"><rect x="0" y="0" width="900" height="600" fill="#001220"></rect><defs><linearGradient id="grad1_0" x1="33.3%" y1="100%" x2="100%" y2="0%"><stop offset="20%" stop-color="#fbae3c" stop-opacity="1"></stop><stop offset="80%" stop-color="#fbae3c" stop-opacity="1"></stop></linearGradient></defs><defs><linearGradient id="grad1_1" x1="33.3%" y1="100%" x2="100%" y2="0%"><stop offset="20%" stop-color="#fbae3c" stop-opacity="1"></stop><stop offset="80%" stop-color="#f48350" stop-opacity="1"></stop></linearGradient></defs><defs><linearGradient id="grad1_2" x1="33.3%" y1="100%" x2="100%" y2="0%"><stop offset="20%" stop-color="#d96162" stop-opacity="1"></stop><stop offset="80%" stop-color="#f48350" stop-opacity="1"></stop></linearGradient></defs><defs><linearGradient id="grad1_3" x1="33.3%" y1="100%" x2="100%" y2="0%"><stop offset="20%" stop-color="#d96162" stop-opacity="1"></stop><stop offset="80%" stop-color="#af4b6d" stop-opacity="1"></stop></linearGradient></defs><defs><linearGradient id="grad1_4" x1="33.3%" y1="100%" x2="100%" y2="0%"><stop offset="20%" stop-color="#7c3e6b" stop-opacity="1"></stop><stop offset="80%" stop-color="#af4b6d" stop-opacity="1"></stop></linearGradient></defs><defs><linearGradient id="grad1_5" x1="33.3%" y1="100%" x2="100%" y2="0%"><stop offset="20%" stop-color="#7c3e6b" stop-opacity="1"></stop><stop offset="80%" stop-color="#49335c" stop-opacity="1"></stop></linearGradient></defs><defs><linearGradient id="grad1_6" x1="33.3%" y1="100%" x2="100%" y2="0%"><stop offset="20%" stop-color="#1d2540" stop-opacity="1"></stop><stop offset="80%" stop-color="#49335c" stop-opacity="1"></stop></linearGradient></defs><defs><linearGradient id="grad1_7" x1="33.3%" y1="100%" x2="100%" y2="0%"><stop offset="20%" stop-color="#1d2540" stop-opacity="1"></stop><stop offset="80%" stop-color="#001220" stop-opacity="1"></stop></linearGradient></defs><defs><linearGradient id="grad2_0" x1="0%" y1="100%" x2="66.7%" y2="0%"><stop offset="20%" stop-color="#fbae3c" stop-opacity="1"></stop><stop offset="80%" stop-color="#fbae3c" stop-opacity="1"></stop></linearGradient></defs><defs><linearGradient id="grad2_1" x1="0%" y1="100%" x2="66.7%" y2="0%"><stop offset="20%" stop-color="#f48350" stop-opacity="1"></stop><stop offset="80%" stop-color="#fbae3c" stop-opacity="1"></stop></linearGradient></defs><defs><linearGradient id="grad2_2" x1="0%" y1="100%" x2="66.7%" y2="0%"><stop offset="20%" stop-color="#f48350" stop-opacity="1"></stop><stop offset="80%" stop-color="#d96162" stop-opacity="1"></stop></linearGradient></defs><defs><linearGradient id="grad2_3" x1="0%" y1="100%" x2="66.7%" y2="0%"><stop offset="20%" stop-color="#af4b6d" stop-opacity="1"></stop><stop offset="80%" stop-color="#d96162" stop-opacity="1"></stop></linearGradient></defs><defs><linearGradient id="grad2_4" x1="0%" y1="100%" x2="66.7%" y2="0%"><stop offset="20%" stop-color="#af4b6d" stop-opacity="1"></stop><stop offset="80%" stop-color="#7c3e6b" stop-opacity="1"></stop></linearGradient></defs><defs><linearGradient id="grad2_5" x1="0%" y1="100%" x2="66.7%" y2="0%"><stop offset="20%" stop-color="#49335c" stop-opacity="1"></stop><stop offset="80%" stop-color="#7c3e6b" stop-opacity="1"></stop></linearGradient></defs><defs><linearGradient id="grad2_6" x1="0%" y1="100%" x2="66.7%" y2="0%"><stop offset="20%" stop-color="#49335c" stop-opacity="1"></stop><stop offset="80%" stop-color="#1d2540" stop-opacity="1"></stop></linearGradient></defs><defs><linearGradient id="grad2_7" x1="0%" y1="100%" x2="66.7%" y2="0%"><stop offset="20%" stop-color="#001220" stop-opacity="1"></stop><stop offset="80%" stop-color="#1d2540" stop-opacity="1"></stop></linearGradient></defs><g transform="translate(900, 600)"><path d="M-378.6 0C-373.7 -27.3 -368.8 -54.6 -363.6 -83C-358.5 -111.4 -353.1 -140.9 -331.6 -159.7C-310 -178.5 -272.4 -186.6 -246.3 -196.4C-220.2 -206.2 -205.7 -217.7 -196.4 -246.3C-187.1 -274.9 -183.1 -320.6 -164.3 -341.1C-145.4 -361.6 -111.7 -356.7 -81.9 -358.8C-52 -360.8 -26 -369.7 0 -378.6L0 0Z" fill="#0c1c30"></path><path d="M-331.3 0C-327 -23.9 -322.7 -47.8 -318.2 -72.6C-313.7 -97.5 -309 -123.3 -290.1 -139.7C-271.3 -156.2 -238.3 -163.3 -215.5 -171.8C-192.7 -180.4 -180 -190.5 -171.8 -215.5C-163.7 -240.5 -160.2 -280.5 -143.7 -298.5C-127.2 -316.4 -97.8 -312.1 -71.7 -313.9C-45.5 -315.7 -22.8 -323.5 0 -331.3L0 0Z" fill="#312c4f"></path><path d="M-283.9 0C-280.3 -20.5 -276.6 -41 -272.7 -62.3C-268.9 -83.5 -264.8 -105.7 -248.7 -119.8C-232.5 -133.9 -204.3 -139.9 -184.7 -147.3C-165.1 -154.6 -154.3 -163.3 -147.3 -184.7C-140.3 -206.2 -137.3 -240.5 -123.2 -255.8C-109.1 -271.2 -83.8 -267.6 -61.4 -269.1C-39 -270.6 -19.5 -277.3 0 -283.9L0 0Z" fill="#623965"></path><path d="M-236.6 0C-233.6 -17.1 -230.5 -34.1 -227.3 -51.9C-224.1 -69.6 -220.7 -88 -207.2 -99.8C-193.8 -111.5 -170.2 -116.6 -153.9 -122.7C-137.6 -128.9 -128.5 -136 -122.7 -153.9C-117 -171.8 -114.4 -200.4 -102.7 -213.2C-90.9 -226 -69.8 -223 -51.2 -224.2C-32.5 -225.5 -16.3 -231.1 0 -236.6L0 0Z" fill="#96446e"></path><path d="M-189.3 0C-186.8 -13.7 -184.4 -27.3 -181.8 -41.5C-179.2 -55.7 -176.5 -70.4 -165.8 -79.8C-155 -89.2 -136.2 -93.3 -123.1 -98.2C-110.1 -103.1 -102.8 -108.8 -98.2 -123.1C-93.6 -137.4 -91.6 -160.3 -82.1 -170.5C-72.7 -180.8 -55.9 -178.4 -40.9 -179.4C-26 -180.4 -13 -184.8 0 -189.3L0 0Z" fill="#c55469"></path><path d="M-142 0C-140.1 -10.2 -138.3 -20.5 -136.4 -31.1C-134.4 -41.8 -132.4 -52.8 -124.3 -59.9C-116.3 -66.9 -102.1 -70 -92.4 -73.6C-82.6 -77.3 -77.1 -81.6 -73.6 -92.4C-70.2 -103.1 -68.7 -120.2 -61.6 -127.9C-54.5 -135.6 -41.9 -133.8 -30.7 -134.5C-19.5 -135.3 -9.8 -138.6 0 -142L0 0Z" fill="#e9705a"></path><path d="M-94.6 0C-93.4 -6.8 -92.2 -13.7 -90.9 -20.8C-89.6 -27.8 -88.3 -35.2 -82.9 -39.9C-77.5 -44.6 -68.1 -46.6 -61.6 -49.1C-55 -51.5 -51.4 -54.4 -49.1 -61.6C-46.8 -68.7 -45.8 -80.2 -41.1 -85.3C-36.4 -90.4 -27.9 -89.2 -20.5 -89.7C-13 -90.2 -6.5 -92.4 0 -94.6L0 0Z" fill="#fa9845"></path><path d="M-47.3 0C-46.7 -3.4 -46.1 -6.8 -45.5 -10.4C-44.8 -13.9 -44.1 -17.6 -41.4 -20C-38.8 -22.3 -34 -23.3 -30.8 -24.5C-27.5 -25.8 -25.7 -27.2 -24.5 -30.8C-23.4 -34.4 -22.9 -40.1 -20.5 -42.6C-18.2 -45.2 -14 -44.6 -10.2 -44.8C-6.5 -45.1 -3.3 -46.2 0 -47.3L0 0Z" fill="#fbae3c"></path></g><g transform="translate(0, 0)"><path d="M378.6 0C376.6 28.1 374.6 56.2 369.1 84.2C363.6 112.3 354.5 140.2 334.3 161C314 181.7 282.5 195.3 254.9 203.3C227.2 211.2 203.3 213.6 190.2 238.5C177 263.3 174.5 310.8 155.3 322.5C136.2 334.3 100.3 310.5 71.7 313.9C43 317.3 21.5 348 0 378.6L0 0Z" fill="#0c1c30"></path><path d="M331.3 0C329.5 24.6 327.8 49.2 323 73.7C318.1 98.2 310.2 122.7 292.5 140.8C274.8 159 247.2 170.9 223 177.9C198.8 184.8 177.9 186.9 166.4 208.7C154.9 230.4 152.7 271.9 135.9 282.2C119.1 292.5 87.8 271.7 62.7 274.7C37.6 277.7 18.8 304.5 0 331.3L0 0Z" fill="#312c4f"></path><path d="M283.9 0C282.4 21.1 281 42.2 276.8 63.2C272.7 84.2 265.9 105.2 250.7 120.7C235.5 136.3 211.9 146.5 191.2 152.4C170.4 158.4 152.5 160.2 142.6 178.8C132.7 197.5 130.9 233.1 116.5 241.9C102.1 250.8 75.2 232.9 53.7 235.4C32.2 238 16.1 261 0 283.9L0 0Z" fill="#623965"></path><path d="M236.6 0C235.4 17.6 234.1 35.1 230.7 52.7C227.2 70.2 221.6 87.6 208.9 100.6C196.3 113.6 176.6 122.1 159.3 127C142 132 127.1 133.5 118.9 149C110.6 164.6 109.1 194.2 97.1 201.6C85.1 209 62.7 194.1 44.8 196.2C26.9 198.3 13.4 217.5 0 236.6L0 0Z" fill="#96446e"></path><path d="M189.3 0C188.3 14.1 187.3 28.1 184.5 42.1C181.8 56.1 177.3 70.1 167.1 80.5C157 90.9 141.3 97.6 127.4 101.6C113.6 105.6 101.7 106.8 95.1 119.2C88.5 131.7 87.2 155.4 77.7 161.3C68.1 167.2 50.2 155.3 35.8 157C21.5 158.7 10.7 174 0 189.3L0 0Z" fill="#c55469"></path><path d="M142 0C141.2 10.5 140.5 21.1 138.4 31.6C136.3 42.1 132.9 52.6 125.3 60.4C117.8 68.1 106 73.2 95.6 76.2C85.2 79.2 76.3 80.1 71.3 89.4C66.4 98.8 65.4 116.5 58.2 121C51.1 125.4 37.6 116.4 26.9 117.7C16.1 119 8.1 130.5 0 142L0 0Z" fill="#e9705a"></path><path d="M94.6 0C94.1 7 93.7 14.1 92.3 21.1C90.9 28.1 88.6 35.1 83.6 40.2C78.5 45.4 70.6 48.8 63.7 50.8C56.8 52.8 50.8 53.4 47.5 59.6C44.2 65.8 43.6 77.7 38.8 80.6C34 83.6 25.1 77.6 17.9 78.5C10.7 79.3 5.4 87 0 94.6L0 0Z" fill="#fa9845"></path><path d="M47.3 0C47.1 3.5 46.8 7 46.1 10.5C45.4 14 44.3 17.5 41.8 20.1C39.3 22.7 35.3 24.4 31.9 25.4C28.4 26.4 25.4 26.7 23.8 29.8C22.1 32.9 21.8 38.8 19.4 40.3C17 41.8 12.5 38.8 9 39.2C5.4 39.7 2.7 43.5 0 47.3L0 0Z" fill="#fbae3c"></path></g></svg>