<svg id="visual" viewBox="0 0 960 540" width="960" height="540" xmlns="http://www.w3.org/2000/svg" xmlns:xlink="http://www.w3.org/1999/xlink" version="1.1"><rect x="0" y="0" width="960" height="540" fill="#001122"></rect><g fill="#C62368"><circle r="65" cx="813" cy="500"></circle><circle r="29" cx="41" cy="461"></circle><circle r="61" cx="422" cy="80"></circle><circle r="48" cx="941" cy="383"></circle><circle r="48" cx="282" cy="21"></circle><circle r="44" cx="158" cy="103"></circle><circle r="39" cx="365" cy="537"></circle><circle r="52" cx="254" cy="399"></circle><circle r="39" cx="574" cy="73"></circle><circle r="50" cx="782" cy="1"></circle><circle r="58" cx="514" cy="501"></circle><circle r="38" cx="160" cy="276"></circle><circle r="57" cx="292" cy="206"></circle><circle r="36" cx="958" cy="99"></circle><circle r="63" cx="507" cy="278"></circle><circle r="30" cx="670" cy="274"></circle><circle r="62" cx="2" cy="102"></circle><circle r="35" cx="857" cy="213"></circle><circle r="33" cx="403" cy="409"></circle><circle r="54" cx="618" cy="400"></circle><circle r="46" cx="646" cy="538"></circle><circle r="37" cx="801" cy="342"></circle><circle r="61" cx="30" cy="324"></circle></g></svg>