<svg id="visual" viewBox="0 0 900 600" width="900" height="600" xmlns="http://www.w3.org/2000/svg" xmlns:xlink="http://www.w3.org/1999/xlink" version="1.1"><rect x="0" y="0" width="900" height="600" fill="#001220"></rect><path d="M0 127L8.8 125.8C17.7 124.7 35.3 122.3 53 121.7C70.7 121 88.3 122 106 126C123.7 130 141.3 137 159 136.3C176.7 135.7 194.3 127.3 212 127.7C229.7 128 247.3 137 265 138.7C282.7 140.3 300.3 134.7 318 134.3C335.7 134 353.3 139 371 137.7C388.7 136.3 406.3 128.7 423.8 125.7C441.3 122.7 458.7 124.3 476.2 123.8C493.7 123.3 511.3 120.7 529 122.8C546.7 125 564.3 132 582 136.8C599.7 141.7 617.3 144.3 635 144.7C652.7 145 670.3 143 688 136.7C705.7 130.3 723.3 119.7 741 119.5C758.7 119.3 776.3 129.7 794 129.5C811.7 129.3 829.3 118.7 847 119C864.7 119.3 882.3 130.7 891.2 136.3L900 142L900 0L891.2 0C882.3 0 864.7 0 847 0C829.3 0 811.7 0 794 0C776.3 0 758.7 0 741 0C723.3 0 705.7 0 688 0C670.3 0 652.7 0 635 0C617.3 0 599.7 0 582 0C564.3 0 546.7 0 529 0C511.3 0 493.7 0 476.2 0C458.7 0 441.3 0 423.8 0C406.3 0 388.7 0 371 0C353.3 0 335.7 0 318 0C300.3 0 282.7 0 265 0C247.3 0 229.7 0 212 0C194.3 0 176.7 0 159 0C141.3 0 123.7 0 106 0C88.3 0 70.7 0 53 0C35.3 0 17.7 0 8.8 0L0 0Z" fill="#4facf7"></path><path d="M0 106L8.8 109C17.7 112 35.3 118 53 121.5C70.7 125 88.3 126 106 127.3C123.7 128.7 141.3 130.3 159 129.7C176.7 129 194.3 126 212 126.2C229.7 126.3 247.3 129.7 265 128.8C282.7 128 300.3 123 318 122.3C335.7 121.7 353.3 125.3 371 125.2C388.7 125 406.3 121 423.8 117C441.3 113 458.7 109 476.2 105.8C493.7 102.7 511.3 100.3 529 99.3C546.7 98.3 564.3 98.7 582 104.7C599.7 110.7 617.3 122.3 635 128.2C652.7 134 670.3 134 688 132.5C705.7 131 723.3 128 741 122.3C758.7 116.7 776.3 108.3 794 109.8C811.7 111.3 829.3 122.7 847 122.3C864.7 122 882.3 110 891.2 104L900 98L900 0L891.2 0C882.3 0 864.7 0 847 0C829.3 0 811.7 0 794 0C776.3 0 758.7 0 741 0C723.3 0 705.7 0 688 0C670.3 0 652.7 0 635 0C617.3 0 599.7 0 582 0C564.3 0 546.7 0 529 0C511.3 0 493.7 0 476.2 0C458.7 0 441.3 0 423.8 0C406.3 0 388.7 0 371 0C353.3 0 335.7 0 318 0C300.3 0 282.7 0 265 0C247.3 0 229.7 0 212 0C194.3 0 176.7 0 159 0C141.3 0 123.7 0 106 0C88.3 0 70.7 0 53 0C35.3 0 17.7 0 8.8 0L0 0Z" fill="#42a7f9"></path><path d="M0 90L8.8 92.2C17.7 94.3 35.3 98.7 53 101.5C70.7 104.3 88.3 105.7 106 106.5C123.7 107.3 141.3 107.7 159 106.5C176.7 105.3 194.3 102.7 212 104C229.7 105.3 247.3 110.7 265 110.5C282.7 110.3 300.3 104.7 318 100.8C335.7 97 353.3 95 371 94.5C388.7 94 406.3 95 423.8 99.3C441.3 103.7 458.7 111.3 476.2 115.7C493.7 120 511.3 121 529 116.2C546.7 111.3 564.3 100.7 582 96.8C599.7 93 617.3 96 635 96C652.7 96 670.3 93 688 91.3C705.7 89.7 723.3 89.3 741 89.5C758.7 89.7 776.3 90.3 794 91.8C811.7 93.3 829.3 95.7 847 95.5C864.7 95.3 882.3 92.7 891.2 91.3L900 90L900 0L891.2 0C882.3 0 864.7 0 847 0C829.3 0 811.7 0 794 0C776.3 0 758.7 0 741 0C723.3 0 705.7 0 688 0C670.3 0 652.7 0 635 0C617.3 0 599.7 0 582 0C564.3 0 546.7 0 529 0C511.3 0 493.7 0 476.2 0C458.7 0 441.3 0 423.8 0C406.3 0 388.7 0 371 0C353.3 0 335.7 0 318 0C300.3 0 282.7 0 265 0C247.3 0 229.7 0 212 0C194.3 0 176.7 0 159 0C141.3 0 123.7 0 106 0C88.3 0 70.7 0 53 0C35.3 0 17.7 0 8.8 0L0 0Z" fill="#35a1fb"></path><path d="M0 112L8.8 110.8C17.7 109.7 35.3 107.3 53 103.5C70.7 99.7 88.3 94.3 106 91.5C123.7 88.7 141.3 88.3 159 87.3C176.7 86.3 194.3 84.7 212 86.3C229.7 88 247.3 93 265 92.5C282.7 92 300.3 86 318 86.7C335.7 87.3 353.3 94.7 371 97.3C388.7 100 406.3 98 423.8 97.5C441.3 97 458.7 98 476.2 97.2C493.7 96.3 511.3 93.7 529 92.3C546.7 91 564.3 91 582 90.8C599.7 90.7 617.3 90.3 635 93.8C652.7 97.3 670.3 104.7 688 106.7C705.7 108.7 723.3 105.3 741 103.5C758.7 101.7 776.3 101.3 794 99.7C811.7 98 829.3 95 847 91.8C864.7 88.7 882.3 85.3 891.2 83.7L900 82L900 0L891.2 0C882.3 0 864.7 0 847 0C829.3 0 811.7 0 794 0C776.3 0 758.7 0 741 0C723.3 0 705.7 0 688 0C670.3 0 652.7 0 635 0C617.3 0 599.7 0 582 0C564.3 0 546.7 0 529 0C511.3 0 493.7 0 476.2 0C458.7 0 441.3 0 423.8 0C406.3 0 388.7 0 371 0C353.3 0 335.7 0 318 0C300.3 0 282.7 0 265 0C247.3 0 229.7 0 212 0C194.3 0 176.7 0 159 0C141.3 0 123.7 0 106 0C88.3 0 70.7 0 53 0C35.3 0 17.7 0 8.8 0L0 0Z" fill="#289bfc"></path><path d="M0 72L8.8 75.8C17.7 79.7 35.3 87.3 53 88.7C70.7 90 88.3 85 106 82.8C123.7 80.7 141.3 81.3 159 83.7C176.7 86 194.3 90 212 89C229.7 88 247.3 82 265 80.5C282.7 79 300.3 82 318 84.5C335.7 87 353.3 89 371 91.5C388.7 94 406.3 97 423.8 94.8C441.3 92.7 458.7 85.3 476.2 83.8C493.7 82.3 511.3 86.7 529 90.2C546.7 93.7 564.3 96.3 582 96.8C599.7 97.3 617.3 95.7 635 92.2C652.7 88.7 670.3 83.3 688 83.5C705.7 83.7 723.3 89.3 741 90.5C758.7 91.7 776.3 88.3 794 87.7C811.7 87 829.3 89 847 86.8C864.7 84.7 882.3 78.3 891.2 75.2L900 72L900 0L891.2 0C882.3 0 864.7 0 847 0C829.3 0 811.7 0 794 0C776.3 0 758.7 0 741 0C723.3 0 705.7 0 688 0C670.3 0 652.7 0 635 0C617.3 0 599.7 0 582 0C564.3 0 546.7 0 529 0C511.3 0 493.7 0 476.2 0C458.7 0 441.3 0 423.8 0C406.3 0 388.7 0 371 0C353.3 0 335.7 0 318 0C300.3 0 282.7 0 265 0C247.3 0 229.7 0 212 0C194.3 0 176.7 0 159 0C141.3 0 123.7 0 106 0C88.3 0 70.7 0 53 0C35.3 0 17.7 0 8.8 0L0 0Z" fill="#1995fe"></path><path d="M0 77L8.8 75.5C17.7 74 35.3 71 53 70.5C70.7 70 88.3 72 106 71.8C123.7 71.7 141.3 69.3 159 71.5C176.7 73.7 194.3 80.3 212 83.3C229.7 86.3 247.3 85.7 265 85.3C282.7 85 300.3 85 318 83.3C335.7 81.7 353.3 78.3 371 76.7C388.7 75 406.3 75 423.8 73.8C441.3 72.7 458.7 70.3 476.2 70.3C493.7 70.3 511.3 72.7 529 72C546.7 71.3 564.3 67.7 582 68.7C599.7 69.7 617.3 75.3 635 76C652.7 76.7 670.3 72.3 688 70.5C705.7 68.7 723.3 69.3 741 70.7C758.7 72 776.3 74 794 72.8C811.7 71.7 829.3 67.3 847 66.8C864.7 66.3 882.3 69.7 891.2 71.3L900 73L900 0L891.2 0C882.3 0 864.7 0 847 0C829.3 0 811.7 0 794 0C776.3 0 758.7 0 741 0C723.3 0 705.7 0 688 0C670.3 0 652.7 0 635 0C617.3 0 599.7 0 582 0C564.3 0 546.7 0 529 0C511.3 0 493.7 0 476.2 0C458.7 0 441.3 0 423.8 0C406.3 0 388.7 0 371 0C353.3 0 335.7 0 318 0C300.3 0 282.7 0 265 0C247.3 0 229.7 0 212 0C194.3 0 176.7 0 159 0C141.3 0 123.7 0 106 0C88.3 0 70.7 0 53 0C35.3 0 17.7 0 8.8 0L0 0Z" fill="#088fff"></path><path d="M0 64L8.8 63.5C17.7 63 35.3 62 53 61.2C70.7 60.3 88.3 59.7 106 58.5C123.7 57.3 141.3 55.7 159 57.3C176.7 59 194.3 64 212 67.7C229.7 71.3 247.3 73.7 265 73.3C282.7 73 300.3 70 318 66.7C335.7 63.3 353.3 59.7 371 58C388.7 56.3 406.3 56.7 423.8 56.3C441.3 56 458.7 55 476.2 54.2C493.7 53.3 511.3 52.7 529 53.8C546.7 55 564.3 58 582 61.2C599.7 64.3 617.3 67.7 635 67.2C652.7 66.7 670.3 62.3 688 60.2C705.7 58 723.3 58 741 59.7C758.7 61.3 776.3 64.7 794 64C811.7 63.3 829.3 58.7 847 56.8C864.7 55 882.3 56 891.2 56.5L900 57L900 0L891.2 0C882.3 0 864.7 0 847 0C829.3 0 811.7 0 794 0C776.3 0 758.7 0 741 0C723.3 0 705.7 0 688 0C670.3 0 652.7 0 635 0C617.3 0 599.7 0 582 0C564.3 0 546.7 0 529 0C511.3 0 493.7 0 476.2 0C458.7 0 441.3 0 423.8 0C406.3 0 388.7 0 371 0C353.3 0 335.7 0 318 0C300.3 0 282.7 0 265 0C247.3 0 229.7 0 212 0C194.3 0 176.7 0 159 0C141.3 0 123.7 0 106 0C88.3 0 70.7 0 53 0C35.3 0 17.7 0 8.8 0L0 0Z" fill="#0089ff"></path><path d="M0 60L8.8 60.7C17.7 61.3 35.3 62.7 53 63.2C70.7 63.7 88.3 63.3 106 62.2C123.7 61 141.3 59 159 58.5C176.7 58 194.3 59 212 60.2C229.7 61.3 247.3 62.7 265 62.8C282.7 63 300.3 62 318 61.3C335.7 60.7 353.3 60.3 371 58.7C388.7 57 406.3 54 423.8 51.5C441.3 49 458.7 47 476.2 48.7C493.7 50.3 511.3 55.7 529 58.3C546.7 61 564.3 61 582 61.2C599.7 61.3 617.3 61.7 635 58.8C652.7 56 670.3 50 688 50.5C705.7 51 723.3 58 741 60.8C758.7 63.7 776.3 62.3 794 61.7C811.7 61 829.3 61 847 59.2C864.7 57.3 882.3 53.7 891.2 51.8L900 50L900 0L891.2 0C882.3 0 864.7 0 847 0C829.3 0 811.7 0 794 0C776.3 0 758.7 0 741 0C723.3 0 705.7 0 688 0C670.3 0 652.7 0 635 0C617.3 0 599.7 0 582 0C564.3 0 546.7 0 529 0C511.3 0 493.7 0 476.2 0C458.7 0 441.3 0 423.8 0C406.3 0 388.7 0 371 0C353.3 0 335.7 0 318 0C300.3 0 282.7 0 265 0C247.3 0 229.7 0 212 0C194.3 0 176.7 0 159 0C141.3 0 123.7 0 106 0C88.3 0 70.7 0 53 0C35.3 0 17.7 0 8.8 0L0 0Z" fill="#0082ff"></path><path d="M0 35L8.8 37.2C17.7 39.3 35.3 43.7 53 44.8C70.7 46 88.3 44 106 42.8C123.7 41.7 141.3 41.3 159 40.5C176.7 39.7 194.3 38.3 212 38C229.7 37.7 247.3 38.3 265 39.3C282.7 40.3 300.3 41.7 318 41.2C335.7 40.7 353.3 38.3 371 37.8C388.7 37.3 406.3 38.7 423.8 38.7C441.3 38.7 458.7 37.3 476.2 36.8C493.7 36.3 511.3 36.7 529 39C546.7 41.3 564.3 45.7 582 47.7C599.7 49.7 617.3 49.3 635 47.2C652.7 45 670.3 41 688 39C705.7 37 723.3 37 741 39.5C758.7 42 776.3 47 794 46.7C811.7 46.3 829.3 40.7 847 39.3C864.7 38 882.3 41 891.2 42.5L900 44L900 0L891.2 0C882.3 0 864.7 0 847 0C829.3 0 811.7 0 794 0C776.3 0 758.7 0 741 0C723.3 0 705.7 0 688 0C670.3 0 652.7 0 635 0C617.3 0 599.7 0 582 0C564.3 0 546.7 0 529 0C511.3 0 493.7 0 476.2 0C458.7 0 441.3 0 423.8 0C406.3 0 388.7 0 371 0C353.3 0 335.7 0 318 0C300.3 0 282.7 0 265 0C247.3 0 229.7 0 212 0C194.3 0 176.7 0 159 0C141.3 0 123.7 0 106 0C88.3 0 70.7 0 53 0C35.3 0 17.7 0 8.8 0L0 0Z" fill="#007cff"></path><path d="M0 34L8.8 33C17.7 32 35.3 30 53 28.7C70.7 27.3 88.3 26.7 106 27.7C123.7 28.7 141.3 31.3 159 33C176.7 34.7 194.3 35.3 212 34.8C229.7 34.3 247.3 32.7 265 32.8C282.7 33 300.3 35 318 35.7C335.7 36.3 353.3 35.7 371 35.3C388.7 35 406.3 35 423.8 35.8C441.3 36.7 458.7 38.3 476.2 38.7C493.7 39 511.3 38 529 35.8C546.7 33.7 564.3 30.3 582 28.8C599.7 27.3 617.3 27.7 635 27.5C652.7 27.3 670.3 26.7 688 27.8C705.7 29 723.3 32 741 32.5C758.7 33 776.3 31 794 31.3C811.7 31.7 829.3 34.3 847 34.2C864.7 34 882.3 31 891.2 29.5L900 28L900 0L891.2 0C882.3 0 864.7 0 847 0C829.3 0 811.7 0 794 0C776.3 0 758.7 0 741 0C723.3 0 705.7 0 688 0C670.3 0 652.7 0 635 0C617.3 0 599.7 0 582 0C564.3 0 546.7 0 529 0C511.3 0 493.7 0 476.2 0C458.7 0 441.3 0 423.8 0C406.3 0 388.7 0 371 0C353.3 0 335.7 0 318 0C300.3 0 282.7 0 265 0C247.3 0 229.7 0 212 0C194.3 0 176.7 0 159 0C141.3 0 123.7 0 106 0C88.3 0 70.7 0 53 0C35.3 0 17.7 0 8.8 0L0 0Z" fill="#0075ff"></path><path d="M0 21L8.8 22.3C17.7 23.7 35.3 26.3 53 26.8C70.7 27.3 88.3 25.7 106 25.3C123.7 25 141.3 26 159 26.8C176.7 27.7 194.3 28.3 212 28.7C229.7 29 247.3 29 265 28.2C282.7 27.3 300.3 25.7 318 25.3C335.7 25 353.3 26 371 26.5C388.7 27 406.3 27 423.8 27.3C441.3 27.7 458.7 28.3 476.2 27.2C493.7 26 511.3 23 529 22.5C546.7 22 564.3 24 582 24C599.7 24 617.3 22 635 21.3C652.7 20.7 670.3 21.3 688 22.5C705.7 23.7 723.3 25.3 741 26C758.7 26.7 776.3 26.3 794 26.2C811.7 26 829.3 26 847 25.2C864.7 24.3 882.3 22.7 891.2 21.8L900 21L900 0L891.2 0C882.3 0 864.7 0 847 0C829.3 0 811.7 0 794 0C776.3 0 758.7 0 741 0C723.3 0 705.7 0 688 0C670.3 0 652.7 0 635 0C617.3 0 599.7 0 582 0C564.3 0 546.7 0 529 0C511.3 0 493.7 0 476.2 0C458.7 0 441.3 0 423.8 0C406.3 0 388.7 0 371 0C353.3 0 335.7 0 318 0C300.3 0 282.7 0 265 0C247.3 0 229.7 0 212 0C194.3 0 176.7 0 159 0C141.3 0 123.7 0 106 0C88.3 0 70.7 0 53 0C35.3 0 17.7 0 8.8 0L0 0Z" fill="#006eff"></path><path d="M0 9L8.8 10C17.7 11 35.3 13 53 13.8C70.7 14.7 88.3 14.3 106 14.2C123.7 14 141.3 14 159 14.5C176.7 15 194.3 16 212 16.2C229.7 16.3 247.3 15.7 265 14.2C282.7 12.7 300.3 10.3 318 9.5C335.7 8.7 353.3 9.3 371 10C388.7 10.7 406.3 11.3 423.8 11.2C441.3 11 458.7 10 476.2 10.8C493.7 11.7 511.3 14.3 529 14.7C546.7 15 564.3 13 582 13C599.7 13 617.3 15 635 15.2C652.7 15.3 670.3 13.7 688 13.5C705.7 13.3 723.3 14.7 741 15C758.7 15.3 776.3 14.7 794 14.8C811.7 15 829.3 16 847 15.5C864.7 15 882.3 13 891.2 12L900 11L900 0L891.2 0C882.3 0 864.7 0 847 0C829.3 0 811.7 0 794 0C776.3 0 758.7 0 741 0C723.3 0 705.7 0 688 0C670.3 0 652.7 0 635 0C617.3 0 599.7 0 582 0C564.3 0 546.7 0 529 0C511.3 0 493.7 0 476.2 0C458.7 0 441.3 0 423.8 0C406.3 0 388.7 0 371 0C353.3 0 335.7 0 318 0C300.3 0 282.7 0 265 0C247.3 0 229.7 0 212 0C194.3 0 176.7 0 159 0C141.3 0 123.7 0 106 0C88.3 0 70.7 0 53 0C35.3 0 17.7 0 8.8 0L0 0Z" fill="#0066ff"></path></svg>