<svg id="visual" viewBox="0 0 960 540" width="960" height="540" xmlns="http://www.w3.org/2000/svg" xmlns:xlink="http://www.w3.org/1999/xlink" version="1.1"><rect x="0" y="0" width="960" height="540" fill="#002233"></rect><path d="M0 96L5.7 94.5C11.3 93 22.7 90 34.2 84C45.7 78 57.3 69 68.8 64.2C80.3 59.3 91.7 58.7 103 58.5C114.3 58.3 125.7 58.7 137 59.3C148.3 60 159.7 61 171.2 63.3C182.7 65.7 194.3 69.3 205.8 70.3C217.3 71.3 228.7 69.7 240 70.3C251.3 71 262.7 74 274.2 74.7C285.7 75.3 297.3 73.7 308.8 71C320.3 68.3 331.7 64.7 343 62C354.3 59.3 365.7 57.7 377 60.5C388.3 63.3 399.7 70.7 411.2 78.5C422.7 86.3 434.3 94.7 445.8 95.8C457.3 97 468.7 91 480 83.8C491.3 76.7 502.7 68.3 514.2 67.2C525.7 66 537.3 72 548.8 73.5C560.3 75 571.7 72 583 73.5C594.3 75 605.7 81 617 84.3C628.3 87.7 639.7 88.3 651.2 86C662.7 83.7 674.3 78.3 685.8 79.2C697.3 80 708.7 87 720 87.3C731.3 87.7 742.7 81.3 754.2 80.3C765.7 79.3 777.3 83.7 788.8 85.3C800.3 87 811.7 86 823 80.8C834.3 75.7 845.7 66.3 857 66.8C868.3 67.3 879.7 77.7 891.2 82.3C902.7 87 914.3 86 925.8 84.3C937.3 82.7 948.7 80.3 954.3 79.2L960 78L960 0L954.3 0C948.7 0 937.3 0 925.8 0C914.3 0 902.7 0 891.2 0C879.7 0 868.3 0 857 0C845.7 0 834.3 0 823 0C811.7 0 800.3 0 788.8 0C777.3 0 765.7 0 754.2 0C742.7 0 731.3 0 720 0C708.7 0 697.3 0 685.8 0C674.3 0 662.7 0 651.2 0C639.7 0 628.3 0 617 0C605.7 0 594.3 0 583 0C571.7 0 560.3 0 548.8 0C537.3 0 525.7 0 514.2 0C502.7 0 491.3 0 480 0C468.7 0 457.3 0 445.8 0C434.3 0 422.7 0 411.2 0C399.7 0 388.3 0 377 0C365.7 0 354.3 0 343 0C331.7 0 320.3 0 308.8 0C297.3 0 285.7 0 274.2 0C262.7 0 251.3 0 240 0C228.7 0 217.3 0 205.8 0C194.3 0 182.7 0 171.2 0C159.7 0 148.3 0 137 0C125.7 0 114.3 0 103 0C91.7 0 80.3 0 68.8 0C57.3 0 45.7 0 34.2 0C22.7 0 11.3 0 5.7 0L0 0Z" fill="#0066FF" stroke-linecap="round" stroke-linejoin="miter"></path></svg>